solid OpenSCAD_Model
  facet normal -1 0 0
    outer loop
      vertex -38.48 -93.9 0
      vertex -38.48 -93.9 0.25
      vertex -38.48 93.9 0
    endloop
  endfacet
  facet normal -1 0 0
    outer loop
      vertex -38.48 93.9 0
      vertex -38.48 -93.9 0.25
      vertex -38.48 93.9 0.25
    endloop
  endfacet
  facet normal 0 -1 0
    outer loop
      vertex -38.48 -93.9 0.25
      vertex -38.48 -93.9 0
      vertex 38.48 -93.9 0
    endloop
  endfacet
  facet normal 0 -1 0
    outer loop
      vertex 38.48 -93.9 0.25
      vertex -38.48 -93.9 0.25
      vertex 38.48 -93.9 0
    endloop
  endfacet
  facet normal 0 0 -1
    outer loop
      vertex -38.48 -93.9 0
      vertex -38.48 93.9 0
      vertex 38.48 -93.9 0
    endloop
  endfacet
  facet normal 0 0 -1
    outer loop
      vertex 38.48 -93.9 0
      vertex -38.48 93.9 0
      vertex 38.48 93.9 0
    endloop
  endfacet
  facet normal 0 1 0
    outer loop
      vertex -38.48 93.9 0
      vertex -38.48 93.9 0.25
      vertex 38.48 93.9 0
    endloop
  endfacet
  facet normal 0 1 0
    outer loop
      vertex 38.48 93.9 0
      vertex -38.48 93.9 0.25
      vertex 38.48 93.9 0.25
    endloop
  endfacet
  facet normal 0 0 1
    outer loop
      vertex -33.48 -88.9 0.25
      vertex -38.48 -93.9 0.25
      vertex 38.48 -93.9 0.25
    endloop
  endfacet
  facet normal 0 0 1
    outer loop
      vertex 33.48 -88.9 0.25
      vertex -33.48 -88.9 0.25
      vertex 38.48 -93.9 0.25
    endloop
  endfacet
  facet normal 0 0 1
    outer loop
      vertex -38.48 93.9 0.25
      vertex -38.48 -93.9 0.25
      vertex -33.48 -88.9 0.25
    endloop
  endfacet
  facet normal 0 0 1
    outer loop
      vertex 38.48 93.9 0.25
      vertex -38.48 93.9 0.25
      vertex -33.48 88.9 0.25
    endloop
  endfacet
  facet normal 0 0 1
    outer loop
      vertex 38.48 93.9 0.25
      vertex 33.48 88.9 0.25
      vertex 38.48 -93.9 0.25
    endloop
  endfacet
  facet normal 0 0 1
    outer loop
      vertex 38.48 93.9 0.25
      vertex -33.48 88.9 0.25
      vertex 33.48 88.9 0.25
    endloop
  endfacet
  facet normal 0 0 1
    outer loop
      vertex 33.48 88.9 0.25
      vertex 33.48 -88.9 0.25
      vertex 38.48 -93.9 0.25
    endloop
  endfacet
  facet normal 0 0 1
    outer loop
      vertex -33.48 -88.9 0.25
      vertex -33.48 88.9 0.25
      vertex -38.48 93.9 0.25
    endloop
  endfacet
  facet normal 1 0 0
    outer loop
      vertex 38.48 -93.9 0.25
      vertex 38.48 -93.9 0
      vertex 38.48 93.9 0
    endloop
  endfacet
  facet normal 1 0 0
    outer loop
      vertex 38.48 93.9 0.25
      vertex 38.48 -93.9 0.25
      vertex 38.48 93.9 0
    endloop
  endfacet
  facet normal -1 0 0
    outer loop
      vertex -33.48 -88.9 0.25
      vertex -33.48 -88.9 3
      vertex -33.48 88.9 0.25
    endloop
  endfacet
  facet normal -1 0 0
    outer loop
      vertex -33.48 88.9 0.25
      vertex -33.48 -88.9 3
      vertex -33.48 88.9 3
    endloop
  endfacet
  facet normal 0 -1 0
    outer loop
      vertex -33.48 -88.9 3
      vertex -33.48 -88.9 0.25
      vertex 33.48 -88.9 0.25
    endloop
  endfacet
  facet normal 0 -1 0
    outer loop
      vertex 33.48 -88.9 3
      vertex -33.48 -88.9 3
      vertex 33.48 -88.9 0.25
    endloop
  endfacet
  facet normal 1 0 0
    outer loop
      vertex 33.48 -88.9 3
      vertex 33.48 -88.9 0.25
      vertex 33.48 88.9 0.25
    endloop
  endfacet
  facet normal 1 0 0
    outer loop
      vertex 33.48 88.9 3
      vertex 33.48 -88.9 3
      vertex 33.48 88.9 0.25
    endloop
  endfacet
  facet normal 0 1 0
    outer loop
      vertex -33.48 88.9 0.25
      vertex -33.48 88.9 3
      vertex 33.48 88.9 0.25
    endloop
  endfacet
  facet normal 0 1 0
    outer loop
      vertex 33.48 88.9 0.25
      vertex -33.48 88.9 3
      vertex 33.48 88.9 3
    endloop
  endfacet
  facet normal 0 0 1
    outer loop
      vertex -27.48 -83.4 3
      vertex -33.48 -88.9 3
      vertex 33.48 -88.9 3
    endloop
  endfacet
  facet normal 0 0 1
    outer loop
      vertex 27.48 -83.4 3
      vertex -27.48 -83.4 3
      vertex 33.48 -88.9 3
    endloop
  endfacet
  facet normal 0 0 1
    outer loop
      vertex -33.48 88.9 3
      vertex -33.48 -88.9 3
      vertex -27.48 -83.4 3
    endloop
  endfacet
  facet normal 0 0 1
    outer loop
      vertex 33.48 88.9 3
      vertex -33.48 88.9 3
      vertex -27.48 83.4 3
    endloop
  endfacet
  facet normal 0 0 1
    outer loop
      vertex 33.48 88.9 3
      vertex 27.48 83.4 3
      vertex 33.48 -88.9 3
    endloop
  endfacet
  facet normal 0 0 1
    outer loop
      vertex 33.48 88.9 3
      vertex -27.48 83.4 3
      vertex 27.48 83.4 3
    endloop
  endfacet
  facet normal 0 0 1
    outer loop
      vertex 27.48 83.4 3
      vertex 27.48 -83.4 3
      vertex 33.48 -88.9 3
    endloop
  endfacet
  facet normal 0 0 1
    outer loop
      vertex -27.48 -83.4 3
      vertex -27.48 83.4 3
      vertex -33.48 88.9 3
    endloop
  endfacet
  facet normal -1 0 0
    outer loop
      vertex -27.48 -83.4 3
      vertex -27.48 -83.4 7
      vertex -27.48 83.4 3
    endloop
  endfacet
  facet normal -1 0 0
    outer loop
      vertex -27.48 83.4 3
      vertex -27.48 -83.4 7
      vertex -27.48 83.4 7
    endloop
  endfacet
  facet normal 0 -1 0
    outer loop
      vertex -27.48 -83.4 7
      vertex -27.48 -83.4 3
      vertex 27.48 -83.4 3
    endloop
  endfacet
  facet normal 0 -1 0
    outer loop
      vertex 27.48 -83.4 7
      vertex -27.48 -83.4 7
      vertex 27.48 -83.4 3
    endloop
  endfacet
  facet normal 1 0 0
    outer loop
      vertex 27.48 -83.4 7
      vertex 27.48 -83.4 3
      vertex 27.48 83.4 3
    endloop
  endfacet
  facet normal 1 0 0
    outer loop
      vertex 27.48 83.4 7
      vertex 27.48 -83.4 7
      vertex 27.48 83.4 3
    endloop
  endfacet
  facet normal 0 1 0
    outer loop
      vertex -27.48 83.4 3
      vertex -27.48 83.4 7
      vertex 27.48 83.4 3
    endloop
  endfacet
  facet normal 0 1 0
    outer loop
      vertex 27.48 83.4 3
      vertex -27.48 83.4 7
      vertex 27.48 83.4 7
    endloop
  endfacet
  facet normal 0 0 1
    outer loop
      vertex -27.48 83.4 7
      vertex -27.48 -83.4 7
      vertex 27.48 -83.4 7
    endloop
  endfacet
  facet normal 0 0 1
    outer loop
      vertex 27.48 83.4 7
      vertex -27.48 83.4 7
      vertex 27.48 -83.4 7
    endloop
  endfacet
endsolid OpenSCAD_Model
