solid OpenSCAD_Model
  facet normal -1 0 0
    outer loop
      vertex -8.1 -3.725 0
      vertex -8.1 -3.725 6
      vertex -8.1 3.725 0
    endloop
  endfacet
  facet normal -1 0 0
    outer loop
      vertex -8.1 3.725 0
      vertex -8.1 -3.725 6
      vertex -8.1 3.725 6
    endloop
  endfacet
  facet normal 0 -1 0
    outer loop
      vertex -8.1 -3.725 6
      vertex -8.1 -3.725 0
      vertex 8.1 -3.725 0
    endloop
  endfacet
  facet normal 0 -1 0
    outer loop
      vertex 8.1 -3.725 6
      vertex -8.1 -3.725 6
      vertex 8.1 -3.725 0
    endloop
  endfacet
  facet normal 0 0 -1
    outer loop
      vertex 5.9 -1.525 0
      vertex 8.1 -3.725 0
      vertex -5.9 -1.525 0
    endloop
  endfacet
  facet normal 0 0 -1
    outer loop
      vertex 5.9 1.525 0
      vertex -8.1 3.725 0
      vertex 8.1 3.725 0
    endloop
  endfacet
  facet normal 0 0 -1
    outer loop
      vertex -8.1 -3.725 0
      vertex -8.1 3.725 0
      vertex -5.9 1.525 0
    endloop
  endfacet
  facet normal 0 0 -1
    outer loop
      vertex -8.1 -3.725 0
      vertex -5.9 1.525 0
      vertex -5.9 -1.525 0
    endloop
  endfacet
  facet normal 0 0 -1
    outer loop
      vertex -8.1 -3.725 0
      vertex -5.9 -1.525 0
      vertex 8.1 -3.725 0
    endloop
  endfacet
  facet normal 0 0 -1
    outer loop
      vertex 8.1 -3.725 0
      vertex 5.9 -1.525 0
      vertex 8.1 3.725 0
    endloop
  endfacet
  facet normal 0 0 -1
    outer loop
      vertex 5.9 -1.525 0
      vertex 5.9 1.525 0
      vertex 8.1 3.725 0
    endloop
  endfacet
  facet normal 0 0 -1
    outer loop
      vertex -5.9 1.525 0
      vertex -8.1 3.725 0
      vertex 5.9 1.525 0
    endloop
  endfacet
  facet normal 0 1 0
    outer loop
      vertex -8.1 3.725 0
      vertex -8.1 3.725 6
      vertex 8.1 3.725 0
    endloop
  endfacet
  facet normal 0 1 0
    outer loop
      vertex 8.1 3.725 0
      vertex -8.1 3.725 6
      vertex 8.1 3.725 6
    endloop
  endfacet
  facet normal 0 0 1
    outer loop
      vertex -5.9 -1.525 6
      vertex -8.1 -3.725 6
      vertex 8.1 -3.725 6
    endloop
  endfacet
  facet normal 0 0 1
    outer loop
      vertex -8.1 3.725 6
      vertex -8.1 -3.725 6
      vertex -5.9 -1.525 6
    endloop
  endfacet
  facet normal 0 0 1
    outer loop
      vertex -5.9 1.525 6
      vertex 5.9 1.525 6
      vertex -8.1 3.725 6
    endloop
  endfacet
  facet normal 0 0 1
    outer loop
      vertex -8.1 3.725 6
      vertex -5.9 -1.525 6
      vertex -5.9 1.525 6
    endloop
  endfacet
  facet normal 0 0 1
    outer loop
      vertex 8.1 3.725 6
      vertex 5.9 1.525 6
      vertex 8.1 -3.725 6
    endloop
  endfacet
  facet normal 0 0 1
    outer loop
      vertex 8.1 3.725 6
      vertex -8.1 3.725 6
      vertex 5.9 1.525 6
    endloop
  endfacet
  facet normal 0 0 1
    outer loop
      vertex 5.9 1.525 6
      vertex 5.9 -1.525 6
      vertex 8.1 -3.725 6
    endloop
  endfacet
  facet normal 0 0 1
    outer loop
      vertex 5.9 -1.525 6
      vertex -5.9 -1.525 6
      vertex 8.1 -3.725 6
    endloop
  endfacet
  facet normal 1 0 0
    outer loop
      vertex 8.1 -3.725 6
      vertex 8.1 -3.725 0
      vertex 8.1 3.725 0
    endloop
  endfacet
  facet normal 1 0 0
    outer loop
      vertex 8.1 3.725 6
      vertex 8.1 -3.725 6
      vertex 8.1 3.725 0
    endloop
  endfacet
  facet normal 1 0 0
    outer loop
      vertex -5.9 1.525 0
      vertex -5.9 1.525 6
      vertex -5.9 -1.525 6
    endloop
  endfacet
  facet normal 1 0 0
    outer loop
      vertex -5.9 -1.525 0
      vertex -5.9 1.525 0
      vertex -5.9 -1.525 6
    endloop
  endfacet
  facet normal 0 -1 0
    outer loop
      vertex 5.9 1.525 0
      vertex 5.9 1.525 6
      vertex -5.9 1.525 6
    endloop
  endfacet
  facet normal 0 -1 0
    outer loop
      vertex -5.9 1.525 0
      vertex 5.9 1.525 0
      vertex -5.9 1.525 6
    endloop
  endfacet
  facet normal -1 0 0
    outer loop
      vertex 5.9 1.525 6
      vertex 5.9 1.525 0
      vertex 5.9 -1.525 6
    endloop
  endfacet
  facet normal -1 0 0
    outer loop
      vertex 5.9 -1.525 6
      vertex 5.9 1.525 0
      vertex 5.9 -1.525 0
    endloop
  endfacet
  facet normal 0 1 0
    outer loop
      vertex 5.9 -1.525 6
      vertex 5.9 -1.525 0
      vertex -5.9 -1.525 6
    endloop
  endfacet
  facet normal 0 1 0
    outer loop
      vertex -5.9 -1.525 6
      vertex 5.9 -1.525 0
      vertex -5.9 -1.525 0
    endloop
  endfacet
endsolid OpenSCAD_Model
